<?xml version="1.0" encoding="UTF-8" standalone="no"?>
<!DOCTYPE svg PUBLIC "-//W3C//DTD SVG 1.1//EN"
 "http://www.w3.org/Graphics/SVG/1.1/DTD/svg11.dtd">
<!-- Generated by graphviz version 2.28.0 (20110507.0327)
 -->
<!-- Title: G Pages: 1 -->
<svg width="98pt" height="258pt"
 viewBox="0.00 0.00 98.00 258.00" xmlns="http://www.w3.org/2000/svg" xmlns:xlink="http://www.w3.org/1999/xlink">
<g id="graph1" class="graph" transform="scale(1 1) rotate(0) translate(4 254)">
<title>G</title>
<polygon fill="white" stroke="white" points="-4,5 -4,-254 95,-254 95,5 -4,5"/>
<g id="graph2" class="cluster"><title>cluster_PHPCoord</title>
<polyline fill="none" stroke="gray" points="20,-8 70,-8 "/>
<path fill="none" stroke="gray" d="M70,-8C76,-8 82,-14 82,-20"/>
<polyline fill="none" stroke="gray" points="82,-20 82,-230 "/>
<path fill="none" stroke="gray" d="M82,-230C82,-236 76,-242 70,-242"/>
<polyline fill="none" stroke="gray" points="70,-242 20,-242 "/>
<path fill="none" stroke="gray" d="M20,-242C14,-242 8,-236 8,-230"/>
<polyline fill="none" stroke="gray" points="8,-230 8,-20 "/>
<path fill="none" stroke="gray" d="M8,-20C8,-14 14,-8 20,-8"/>
<text text-anchor="middle" x="45" y="-229.2" font-family="Times New Roman,serif" font-size="11.00" fill="gray">PHPCoord</text>
</g>
<!-- \\PHPCoord\\LatLng -->
<g id="node2" class="node"><title>\\PHPCoord\\LatLng</title>
<a xlink:href="LatLng.html" xlink:title="LatLng" target="_parent">
<polygon fill="none" stroke="black" points="73.5,-214 16.5,-214 16.5,-178 73.5,-178 73.5,-214"/>
<text text-anchor="middle" x="45" y="-193.2" font-family="Courier,monospace" font-size="11.00">LatLng</text>
</a>
</g>
<!-- \\PHPCoord\\OSRef -->
<g id="node3" class="node"><title>\\PHPCoord\\OSRef</title>
<a xlink:href="OSRef.html" xlink:title="OSRef" target="_parent">
<polygon fill="none" stroke="black" points="72,-160 18,-160 18,-124 72,-124 72,-160"/>
<text text-anchor="middle" x="45" y="-139.2" font-family="Courier,monospace" font-size="11.00">OSRef</text>
</a>
</g>
<!-- \\PHPCoord\\RefEll -->
<g id="node4" class="node"><title>\\PHPCoord\\RefEll</title>
<a xlink:href="RefEll.html" xlink:title="RefEll" target="_parent">
<polygon fill="none" stroke="black" points="73.5,-106 16.5,-106 16.5,-70 73.5,-70 73.5,-106"/>
<text text-anchor="middle" x="45" y="-85.2" font-family="Courier,monospace" font-size="11.00">RefEll</text>
</a>
</g>
<!-- \\PHPCoord\\UTMRef -->
<g id="node5" class="node"><title>\\PHPCoord\\UTMRef</title>
<a xlink:href="UTMRef.html" xlink:title="UTMRef" target="_parent">
<polygon fill="none" stroke="black" points="73.5,-52 16.5,-52 16.5,-16 73.5,-16 73.5,-52"/>
<text text-anchor="middle" x="45" y="-31.2" font-family="Courier,monospace" font-size="11.00">UTMRef</text>
</a>
</g>
</g>
</svg>
